<svg width="57" height="46" viewBox="0 0 57 46" fill="none" xmlns="http://www.w3.org/2000/svg">
<path d="M2.33331 45H54.7143" stroke="#141414" stroke-width="2" stroke-linecap="round" stroke-linejoin="round"/>
<path d="M32.7143 45V2.91304C32.7143 2.40567 32.5093 1.91908 32.1444 1.56032C31.7796 1.20155 31.2847 1 30.7687 1H7.42177C6.90578 1 6.41091 1.20155 6.04604 1.56032C5.68118 1.91908 5.4762 2.40567 5.4762 2.91304V45" stroke="#141414" stroke-width="2" stroke-linecap="round" stroke-linejoin="round"/>
<path d="M32.7143 13.5713H48.5714C50.2283 13.5713 51.5714 14.9144 51.5714 16.5713V43.9522H32.7143V13.5713Z" fill="#FFD550" stroke="#141414" stroke-width="2" stroke-linecap="round" stroke-linejoin="round"/>
<path d="M13.8572 10.4287H21.1905" stroke="#141414" stroke-width="2" stroke-linecap="round" stroke-linejoin="round"/>
<path d="M1.28571 40.8096L1.2857 26.1429" stroke="#141414" stroke-width="2" stroke-linecap="round" stroke-linejoin="round"/>
<path d="M55.7619 30.333L55.7619 15.6663" stroke="#141414" stroke-width="2" stroke-linecap="round" stroke-linejoin="round"/>
<path d="M35.8571 9.38086L43.1905 9.38086" stroke="#141414" stroke-width="2" stroke-linecap="round" stroke-linejoin="round"/>
<path d="M17 26.1426H24.3333" stroke="#141414" stroke-width="2" stroke-linecap="round" stroke-linejoin="round"/>
<path d="M13.8572 35.5713H21.1905" stroke="#141414" stroke-width="2" stroke-linecap="round" stroke-linejoin="round"/>
<path d="M40.0476 35.5713H44.2381" stroke="#141414" stroke-width="2" stroke-linecap="round" stroke-linejoin="round"/>
<path d="M40.0476 26.1426H44.2381" stroke="#141414" stroke-width="2" stroke-linecap="round" stroke-linejoin="round"/>
</svg>
