<svg width="141" height="36" viewBox="0 0 141 36" fill="none" xmlns="http://www.w3.org/2000/svg">
<path d="M40.1004 28C39.8804 28 39.7004 27.93 39.5604 27.79C39.4204 27.65 39.3504 27.47 39.3504 27.25V7.75C39.3504 7.53 39.4204 7.35 39.5604 7.21C39.7004 7.07 39.8804 7 40.1004 7H48.2904C49.9104 7 51.3104 7.25 52.4904 7.75C53.6904 8.25 54.6204 9.01 55.2804 10.03C55.9604 11.03 56.3004 12.28 56.3004 13.78C56.3004 15.3 55.9604 16.56 55.2804 17.56C54.6204 18.54 53.6904 19.27 52.4904 19.75C51.3104 20.23 49.9104 20.47 48.2904 20.47H44.2704V27.25C44.2704 27.47 44.2004 27.65 44.0604 27.79C43.9204 27.93 43.7404 28 43.5204 28H40.1004ZM44.1804 16.75H48.1404C49.1604 16.75 49.9504 16.5 50.5104 16C51.0904 15.5 51.3804 14.75 51.3804 13.75C51.3804 12.87 51.1204 12.15 50.6004 11.59C50.1004 11.03 49.2804 10.75 48.1404 10.75H44.1804V16.75ZM64.7301 28C64.5101 28 64.3301 27.93 64.1901 27.79C64.0501 27.65 63.9801 27.47 63.9801 27.25V11.17H58.5201C58.3201 11.17 58.1501 11.1 58.0101 10.96C57.8701 10.82 57.8001 10.65 57.8001 10.45V7.75C57.8001 7.53 57.8701 7.35 58.0101 7.21C58.1501 7.07 58.3201 7 58.5201 7H74.2401C74.4601 7 74.6401 7.07 74.7801 7.21C74.9201 7.35 74.9901 7.53 74.9901 7.75V10.45C74.9901 10.65 74.9201 10.82 74.7801 10.96C74.6401 11.1 74.4601 11.17 74.2401 11.17H68.8101V27.25C68.8101 27.47 68.7401 27.65 68.6001 27.79C68.4601 27.93 68.2801 28 68.0601 28H64.7301ZM76.2408 28C76.0208 28 75.8408 27.93 75.7008 27.79C75.5608 27.65 75.4908 27.47 75.4908 27.25V23.89C75.4908 23.67 75.5608 23.49 75.7008 23.35C75.8408 23.21 76.0208 23.14 76.2408 23.14H79.6008C79.8208 23.14 80.0008 23.21 80.1408 23.35C80.2808 23.49 80.3508 23.67 80.3508 23.89V27.25C80.3508 27.47 80.2808 27.65 80.1408 27.79C80.0008 27.93 79.8208 28 79.6008 28H76.2408ZM88.9212 28C88.7412 28 88.5912 27.94 88.4712 27.82C88.3512 27.68 88.2912 27.53 88.2912 27.37C88.2912 27.27 88.3012 27.18 88.3212 27.1L95.4612 7.81C95.5212 7.59 95.6412 7.4 95.8212 7.24C96.0012 7.08 96.2512 7 96.5712 7H100.411C100.731 7 100.981 7.08 101.161 7.24C101.341 7.4 101.461 7.59 101.521 7.81L108.661 27.1C108.681 27.18 108.691 27.27 108.691 27.37C108.691 27.53 108.631 27.68 108.511 27.82C108.391 27.94 108.241 28 108.061 28H104.941C104.641 28 104.421 27.93 104.281 27.79C104.141 27.65 104.051 27.52 104.011 27.4L102.721 24.04H94.2612L92.9712 27.4C92.9312 27.52 92.8412 27.65 92.7012 27.79C92.5612 27.93 92.3412 28 92.0412 28H88.9212ZM95.3712 20.17H101.581L98.4912 11.53L95.3712 20.17ZM112.024 28C111.804 28 111.624 27.93 111.484 27.79C111.344 27.65 111.274 27.47 111.274 27.25V7.75C111.274 7.53 111.344 7.35 111.484 7.21C111.624 7.07 111.804 7 112.024 7H115.414C115.634 7 115.814 7.07 115.954 7.21C116.094 7.35 116.164 7.53 116.164 7.75V27.25C116.164 27.47 116.094 27.65 115.954 27.79C115.814 27.93 115.634 28 115.414 28H112.024ZM128.931 28.3C127.051 28.3 125.451 27.99 124.131 27.37C122.831 26.73 121.821 25.81 121.101 24.61C120.381 23.39 119.981 21.91 119.901 20.17C119.881 19.35 119.871 18.47 119.871 17.53C119.871 16.59 119.881 15.69 119.901 14.83C119.981 13.11 120.381 11.65 121.101 10.45C121.841 9.23 122.871 8.3 124.191 7.66C125.511 7.02 127.091 6.7 128.931 6.7C130.271 6.7 131.491 6.87 132.591 7.21C133.691 7.55 134.641 8.04 135.441 8.68C136.241 9.32 136.861 10.07 137.301 10.93C137.741 11.79 137.981 12.75 138.021 13.81C138.021 13.99 137.951 14.14 137.811 14.26C137.691 14.38 137.541 14.44 137.361 14.44H133.941C133.701 14.44 133.511 14.38 133.371 14.26C133.231 14.14 133.121 13.94 133.041 13.66C132.741 12.48 132.241 11.67 131.541 11.23C130.841 10.79 129.971 10.57 128.931 10.57C127.691 10.57 126.711 10.91 125.991 11.59C125.271 12.27 124.881 13.4 124.821 14.98C124.761 16.62 124.761 18.3 124.821 20.02C124.881 21.6 125.271 22.73 125.991 23.41C126.711 24.09 127.691 24.43 128.931 24.43C129.971 24.43 130.841 24.21 131.541 23.77C132.261 23.31 132.761 22.5 133.041 21.34C133.121 21.04 133.231 20.84 133.371 20.74C133.511 20.62 133.701 20.56 133.941 20.56H137.361C137.541 20.56 137.691 20.62 137.811 20.74C137.951 20.86 138.021 21.01 138.021 21.19C137.981 22.25 137.741 23.21 137.301 24.07C136.861 24.93 136.241 25.68 135.441 26.32C134.641 26.96 133.691 27.45 132.591 27.79C131.491 28.13 130.271 28.3 128.931 28.3Z" fill="white"/>
<rect y="7.8916" width="9.78261" height="9.78261" transform="rotate(-30 0 7.8916)" fill="#FFB82B"/>
<rect x="4.13037" y="18" width="10" height="10" fill="#FFB82B"/>
<rect x="18.1304" y="5" width="10" height="10" fill="#FFB82B"/>
<rect x="18.1304" y="18" width="10" height="10" fill="#FFB82B"/>
</svg>
