<svg width="73" height="88" viewBox="0 0 73 88" fill="none" xmlns="http://www.w3.org/2000/svg">
<g filter="url(#filter0_d_38_840)">
<path d="M68.5 42C68.5 59.9565 54.1659 74.5 36.5 74.5C18.8341 74.5 4.5 59.9565 4.5 42C4.5 24.0435 18.8341 9.5 36.5 9.5C54.1659 9.5 68.5 24.0435 68.5 42Z" fill="#FFE6A5" stroke="#1C1F35"/>
<path d="M52.5 13.5C52.5 20.6627 46.4731 26.5 39 26.5C31.5269 26.5 25.5 20.6627 25.5 13.5C25.5 6.33728 31.5269 0.5 39 0.5C46.4731 0.5 52.5 6.33728 52.5 13.5Z" fill="#FFE6A5" stroke="#1C1F35"/>
<path d="M64.5 66.5C64.5 73.6627 58.4731 79.5 51 79.5C43.5269 79.5 37.5 73.6627 37.5 66.5C37.5 59.3373 43.5269 53.5 51 53.5C58.4731 53.5 64.5 59.3373 64.5 66.5Z" fill="#FFE6A5" stroke="#1C1F35"/>
<path d="M39.0261 20.5798C43.0122 20.5798 46.2435 17.449 46.2435 13.587C46.2435 9.72501 43.0122 6.59424 39.0261 6.59424C35.0401 6.59424 31.8087 9.72501 31.8087 13.587C31.8087 17.449 35.0401 20.5798 39.0261 20.5798Z" stroke="#1C1F35" stroke-linecap="round" stroke-linejoin="round"/>
<path d="M32.3639 11.4355H45.6883" stroke="#1C1F35" stroke-linecap="round" stroke-linejoin="round"/>
<path d="M32.3639 15.7388H45.6883" stroke="#1C1F35" stroke-linecap="round" stroke-linejoin="round"/>
<path d="M39.0261 20.0421C40.5592 20.0421 41.802 17.1521 41.802 13.5872C41.802 10.0223 40.5592 7.13232 39.0261 7.13232C37.493 7.13232 36.2502 10.0223 36.2502 13.5872C36.2502 17.1521 37.493 20.0421 39.0261 20.0421Z" stroke="#1C1F35" stroke-linecap="round" stroke-linejoin="round"/>
<path d="M48.0131 46.2129L59.4294 39.5156" stroke="#1C1F35" stroke-linecap="round" stroke-linejoin="round"/>
<path d="M46.1451 47.1763L40.9799 50.0656" stroke="#1C1F35" stroke-linecap="round" stroke-linejoin="round"/>
<path d="M13.5204 45.8315L21.2363 52.8399C22.2651 53.7755 23.5778 54.3639 24.979 54.5178C26.3803 54.6716 27.7953 54.3825 29.0136 53.6936L60 36.2222L56.1932 31.6956C55.2029 30.5223 53.8128 29.7314 52.2739 29.4656C50.7349 29.1998 49.1488 29.4767 47.8019 30.2462L38.7147 35.4281L26.4348 31.4573L23.0578 32.8669C22.8052 32.972 22.5838 33.137 22.4142 33.3469C22.2446 33.5567 22.1322 33.8046 22.0874 34.0676C22.0425 34.3307 22.0667 34.6005 22.1576 34.8521C22.2485 35.1038 22.4032 35.3291 22.6075 35.5075L28.8908 40.9872L23.1601 44.1638L17.4295 41.7813L13.9911 43.2108C13.7409 43.315 13.5215 43.4781 13.3527 43.6854C13.1839 43.8926 13.071 44.1373 13.0243 44.3975C12.9776 44.6577 12.9985 44.9251 13.0851 45.1755C13.1717 45.4259 13.3213 45.6513 13.5204 45.8315V45.8315Z" stroke="#1C1F35" stroke-linecap="round" stroke-linejoin="round"/>
<path d="M26.7484 51.3198L38.1647 44.6225" stroke="#1C1F35" stroke-linecap="round" stroke-linejoin="round"/>
<path d="M57.513 68.4513V61.9981C57.5125 61.9049 57.4866 61.8135 57.4379 61.7331C57.3892 61.6526 57.3194 61.586 57.2356 61.54L51.2813 58.3003C51.201 58.2555 51.11 58.2319 51.0174 58.2319C50.9247 58.2319 50.8337 58.2555 50.7535 58.3003L44.7991 61.54C44.7153 61.586 44.6456 61.6526 44.5969 61.7331C44.5482 61.8135 44.5222 61.9049 44.5217 61.9981V68.4513C44.5222 68.5445 44.5482 68.6359 44.5969 68.7164C44.6456 68.7968 44.7153 68.8634 44.7991 68.9094L50.7535 72.1491C50.8337 72.1939 50.9247 72.2175 51.0174 72.2175C51.11 72.2175 51.201 72.1939 51.2813 72.1491L57.2356 68.9094C57.3194 68.8634 57.3892 68.7968 57.4379 68.7164C57.4866 68.6359 57.5125 68.5445 57.513 68.4513V68.4513Z" stroke="#1C1F35" stroke-linecap="round" stroke-linejoin="round"/>
<path d="M57.513 61.7285L51.079 65.2249L44.5217 61.7285" stroke="#1C1F35" stroke-linecap="round" stroke-linejoin="round"/>
<path d="M51.0174 65.2246V72.2174" stroke="#1C1F35" stroke-linecap="round" stroke-linejoin="round"/>
</g>
<defs>
<filter id="filter0_d_38_840" x="0" y="0" width="73" height="88" filterUnits="userSpaceOnUse" color-interpolation-filters="sRGB">
<feFlood flood-opacity="0" result="BackgroundImageFix"/>
<feColorMatrix in="SourceAlpha" type="matrix" values="0 0 0 0 0 0 0 0 0 0 0 0 0 0 0 0 0 0 127 0" result="hardAlpha"/>
<feOffset dy="4"/>
<feGaussianBlur stdDeviation="2"/>
<feComposite in2="hardAlpha" operator="out"/>
<feColorMatrix type="matrix" values="0 0 0 0 0 0 0 0 0 0 0 0 0 0 0 0 0 0 0.25 0"/>
<feBlend mode="normal" in2="BackgroundImageFix" result="effect1_dropShadow_38_840"/>
<feBlend mode="normal" in="SourceGraphic" in2="effect1_dropShadow_38_840" result="shape"/>
</filter>
</defs>
</svg>
